<?xml version="1.0" encoding="UTF-8"?><!DOCTYPE svg PUBLIC "-//W3C//DTD SVG 1.1//EN" "http://www.w3.org/Graphics/SVG/1.1/DTD/svg11.dtd">
<svg version="1.2" viewBox="0 0 10000 5000" xmlns="http://www.w3.org/2000/svg">
<rect class="BoundingBox" stroke="none" fill="none" x="700" y="79" width="2176" height="457"/>
<path fill="rgb(128,128,128)" fill-opacity="0.502" stroke="none" d="M 701,308 L 1088,80 1088,80 2488,80 2488,80 2875,308 2488,534 2488,534 2488,534 1088,534 1088,534 1088,534 701,308 Z"/>
<rect class="BoundingBox" stroke="none" fill="none" x="2656" y="336" width="457" height="2176"/>
<path fill="rgb(128,128,128)" fill-opacity="0.502" stroke="none" d="M 2883,337 L 3111,723 3111,723 3111,2124 3111,2124 2883,2511 2657,2124 2657,2124 2657,2124 2657,723 2657,723 2657,723 2883,337 Z"/>
<rect class="BoundingBox" stroke="none" fill="none" x="5879" y="336" width="457" height="2176"/>
<path fill="rgb(128,128,128)" fill-opacity="0.502" stroke="none" d="M 6106,337 L 6334,723 6334,723 6334,2124 6334,2124 6106,2511 5880,2124 5880,2124 5880,2124 5880,723 5880,723 5880,723 6106,337 Z"/>
<rect class="BoundingBox" stroke="none" fill="none" x="6889" y="2510" width="457" height="2176"/>
<path fill="rgb(128,128,128)" fill-opacity="0.502" stroke="none" d="M 7116,2511 L 7344,2897 7344,2897 7344,4298 7344,4298 7116,4684 6890,4298 6890,4298 6890,4298 6890,2897 6890,2897 6890,2897 7116,2511 Z"/>
<rect class="BoundingBox" stroke="none" fill="none" x="9102" y="336" width="456" height="2176"/>
<path fill="rgb(128,128,128)" fill-opacity="0.502" stroke="none" d="M 9329,337 L 9557,723 9557,723 9557,2124 9557,2124 9329,2511 9102,2124 9102,2124 9102,2124 9102,723 9102,723 9102,723 9329,337 Z"/>
<rect class="BoundingBox" stroke="none" fill="none" x="444" y="336" width="456" height="2176"/>
<path fill="rgb(215,113,113)" stroke="none" d="M 671,337 L 899,723 899,723 899,2124 899,2124 671,2511 444,2124 444,2124 444,2124 444,723 444,723 444,723 671,337 Z"/>
<rect class="BoundingBox" stroke="none" fill="none" x="444" y="2510" width="456" height="2176"/>
<path fill="rgb(215,113,113)" stroke="none" d="M 671,2511 L 899,2897 899,2897 899,4298 899,4298 671,4684 444,4298 444,4298 444,4298 444,2897 444,2897 444,2897 671,2511 Z"/>
<rect class="BoundingBox" stroke="none" fill="none" x="700" y="2292" width="2176" height="457"/>
<path fill="rgb(215,113,113)" stroke="none" d="M 701,2521 L 1088,2293 1088,2293 2488,2293 2488,2293 2875,2521 2488,2747 2488,2747 2488,2747 1088,2747 1088,2747 1088,2747 701,2521 Z"/>
<rect class="BoundingBox" stroke="none" fill="none" x="700" y="4465" width="2176" height="457"/>
<path fill="rgb(215,113,113)" stroke="none" d="M 701,4694 L 1088,4466 1088,4466 2488,4466 2488,4466 2875,4694 2488,4921 2488,4921 2488,4921 1088,4921 1088,4921 1088,4921 701,4694 Z"/>
<rect class="BoundingBox" stroke="none" fill="none" x="2656" y="2510" width="457" height="2176"/>
<path fill="rgb(215,113,113)" stroke="none" d="M 2883,2511 L 3111,2897 3111,2897 3111,4298 3111,4298 2883,4684 2657,4298 2657,4298 2657,4298 2657,2897 2657,2897 2657,2897 2883,2511 Z"/>
<rect class="BoundingBox" stroke="none" fill="none" x="3666" y="336" width="457" height="2176"/>
<path fill="rgb(215,113,113)" stroke="none" d="M 3894,337 L 4121,723 4121,723 4121,2124 4121,2124 3894,2511 3667,2124 3667,2124 3667,2124 3667,723 3667,723 3667,723 3894,337 Z"/>
<rect class="BoundingBox" stroke="none" fill="none" x="3666" y="2510" width="457" height="2176"/>
<path fill="rgb(215,113,113)" stroke="none" d="M 3894,2511 L 4121,2897 4121,2897 4121,4298 4121,4298 3894,4684 3667,4298 3667,4298 3667,4298 3667,2897 3667,2897 3667,2897 3894,2511 Z"/>
<rect class="BoundingBox" stroke="none" fill="none" x="3923" y="79" width="2176" height="457"/>
<path fill="rgb(215,113,113)" stroke="none" d="M 3924,308 L 4310,80 4310,80 5711,80 5711,80 6098,308 5711,534 5711,534 5711,534 4310,534 4310,534 4310,534 3924,308 Z"/>
<rect class="BoundingBox" stroke="none" fill="none" x="3923" y="2292" width="2176" height="457"/>
<path fill="rgb(215,113,113)" stroke="none" d="M 3924,2521 L 4310,2293 4310,2293 5711,2293 5711,2293 6098,2521 5711,2747 5711,2747 5711,2747 4310,2747 4310,2747 4310,2747 3924,2521 Z"/>
<rect class="BoundingBox" stroke="none" fill="none" x="3923" y="4465" width="2176" height="457"/>
<path fill="rgb(215,113,113)" stroke="none" d="M 3924,4694 L 4310,4466 4310,4466 5711,4466 5711,4466 6098,4694 5711,4921 5711,4921 5711,4921 4310,4921 4310,4921 4310,4921 3924,4694 Z"/>
<rect class="BoundingBox" stroke="none" fill="none" x="5879" y="2510" width="457" height="2176"/>
<path fill="rgb(215,113,113)" stroke="none" d="M 6106,2511 L 6334,2897 6334,2897 6334,4298 6334,4298 6106,4684 5880,4298 5880,4298 5880,4298 5880,2897 5880,2897 5880,2897 6106,2511 Z"/>
<rect class="BoundingBox" stroke="none" fill="none" x="6889" y="336" width="457" height="2176"/>
<path fill="rgb(215,113,113)" stroke="none" d="M 7116,337 L 7344,723 7344,723 7344,2124 7344,2124 7116,2511 6890,2124 6890,2124 6890,2124 6890,723 6890,723 6890,723 7116,337 Z"/>
<rect class="BoundingBox" stroke="none" fill="none" x="7146" y="79" width="2176" height="457"/>
<path fill="rgb(215,113,113)" stroke="none" d="M 7147,308 L 7533,80 7533,80 8934,80 8934,80 9320,308 8934,534 8934,534 8934,534 7533,534 7533,534 7533,534 7147,308 Z"/>
<rect class="BoundingBox" stroke="none" fill="none" x="7146" y="2292" width="2176" height="457"/>
<path fill="rgb(215,113,113)" stroke="none" d="M 7147,2521 L 7533,2293 7533,2293 8934,2293 8934,2293 9320,2521 8934,2747 8934,2747 8934,2747 7533,2747 7533,2747 7533,2747 7147,2521 Z"/>
<rect class="BoundingBox" stroke="none" fill="none" x="7146" y="4465" width="2176" height="457"/>
<path fill="rgb(215,113,113)" stroke="none" d="M 7147,4694 L 7533,4466 7533,4466 8934,4466 8934,4466 9320,4694 8934,4921 8934,4921 8934,4921 7533,4921 7533,4921 7533,4921 7147,4694 Z"/>
<rect class="BoundingBox" stroke="none" fill="none" x="9102" y="2510" width="456" height="2176"/>
<path fill="rgb(215,113,113)" stroke="none" d="M 9329,2511 L 9557,2897 9557,2897 9557,4298 9557,4298 9329,4684 9102,4298 9102,4298 9102,4298 9102,2897 9102,2897 9102,2897 9329,2511 Z"/>
</svg>