<?xml version="1.0" encoding="UTF-8"?><!DOCTYPE svg PUBLIC "-//W3C//DTD SVG 1.1//EN" "http://www.w3.org/Graphics/SVG/1.1/DTD/svg11.dtd">
<svg version="1.2" viewBox="0 1000 10000 2000" xmlns="http://www.w3.org/2000/svg">
<rect class="BoundingBox" stroke="none" fill="none" x="2406" y="40" width="1313" height="276"/>
<path fill="rgb(128,128,128)" fill-opacity="0.502" stroke="none" d="M 2406,178 L 2640,40 2640,40 3484,40 3484,40 3718,178 3484,315 3484,315 3484,315 2640,315 2640,315 2640,315 2406,178 Z"/>
<rect class="BoundingBox" stroke="none" fill="none" x="3586" y="195" width="276" height="1314"/>
<path fill="rgb(128,128,128)" fill-opacity="0.502" stroke="none" d="M 3723,196 L 3861,429 3861,429 3861,1274 3861,1274 3723,1507 3586,1274 3586,1274 3586,1274 3586,429 3586,429 3586,429 3723,196 Z"/>
<rect class="BoundingBox" stroke="none" fill="none" x="5530" y="195" width="277" height="1314"/>
<path fill="rgb(128,128,128)" fill-opacity="0.502" stroke="none" d="M 5668,196 L 5805,429 5805,429 5805,1274 5805,1274 5668,1507 5531,1274 5531,1274 5531,1274 5531,429 5531,429 5531,429 5668,196 Z"/>
<rect class="BoundingBox" stroke="none" fill="none" x="6140" y="1507" width="276" height="1313"/>
<path fill="rgb(128,128,128)" fill-opacity="0.502" stroke="none" d="M 6277,1507 L 6415,1741 6415,1741 6415,2585 6415,2585 6277,2819 6140,2585 6140,2585 6140,2585 6140,1741 6140,1741 6140,1741 6277,1507 Z"/>
<rect class="BoundingBox" stroke="none" fill="none" x="7474" y="195" width="276" height="1314"/>
<path fill="rgb(128,128,128)" fill-opacity="0.502" stroke="none" d="M 7611,196 L 7749,429 7749,429 7749,1274 7749,1274 7611,1507 7475,1274 7475,1274 7475,1274 7475,429 7475,429 7475,429 7611,196 Z"/>
<rect class="BoundingBox" stroke="none" fill="none" x="2251" y="195" width="276" height="1314"/>
<path fill="rgb(215,113,113)" stroke="none" d="M 2388,196 L 2526,429 2526,429 2526,1274 2526,1274 2388,1507 2251,1274 2251,1274 2251,1274 2251,429 2251,429 2251,429 2388,196 Z"/>
<rect class="BoundingBox" stroke="none" fill="none" x="2251" y="1507" width="276" height="1313"/>
<path fill="rgb(215,113,113)" stroke="none" d="M 2388,1507 L 2526,1741 2526,1741 2526,2585 2526,2585 2388,2819 2251,2585 2251,2585 2251,2585 2251,1741 2251,1741 2251,1741 2388,1507 Z"/>
<rect class="BoundingBox" stroke="none" fill="none" x="2406" y="1375" width="1313" height="276"/>
<path fill="rgb(215,113,113)" stroke="none" d="M 2406,1513 L 2640,1375 2640,1375 3484,1375 3484,1375 3718,1513 3484,1650 3484,1650 3484,1650 2640,1650 2640,1650 2640,1650 2406,1513 Z"/>
<rect class="BoundingBox" stroke="none" fill="none" x="2406" y="2686" width="1313" height="276"/>
<path fill="rgb(215,113,113)" stroke="none" d="M 2406,2824 L 2640,2686 2640,2686 3484,2686 3484,2686 3718,2824 3484,2961 3484,2961 3484,2961 2640,2961 2640,2961 2640,2961 2406,2824 Z"/>
<rect class="BoundingBox" stroke="none" fill="none" x="3586" y="1507" width="276" height="1313"/>
<path fill="rgb(215,113,113)" stroke="none" d="M 3723,1507 L 3861,1741 3861,1741 3861,2585 3861,2585 3723,2819 3586,2585 3586,2585 3586,2585 3586,1741 3586,1741 3586,1741 3723,1507 Z"/>
<rect class="BoundingBox" stroke="none" fill="none" x="4195" y="195" width="277" height="1314"/>
<path fill="rgb(215,113,113)" stroke="none" d="M 4333,196 L 4470,429 4470,429 4470,1274 4470,1274 4333,1507 4196,1274 4196,1274 4196,1274 4196,429 4196,429 4196,429 4333,196 Z"/>
<rect class="BoundingBox" stroke="none" fill="none" x="4195" y="1507" width="277" height="1313"/>
<path fill="rgb(215,113,113)" stroke="none" d="M 4333,1507 L 4470,1741 4470,1741 4470,2585 4470,2585 4333,2819 4196,2585 4196,2585 4196,2585 4196,1741 4196,1741 4196,1741 4333,1507 Z"/>
<rect class="BoundingBox" stroke="none" fill="none" x="4350" y="40" width="1314" height="276"/>
<path fill="rgb(215,113,113)" stroke="none" d="M 4351,178 L 4584,40 4584,40 5429,40 5429,40 5662,178 5429,315 5429,315 5429,315 4584,315 4584,315 4584,315 4351,178 Z"/>
<rect class="BoundingBox" stroke="none" fill="none" x="4350" y="1375" width="1314" height="276"/>
<path fill="rgb(215,113,113)" stroke="none" d="M 4351,1513 L 4584,1375 4584,1375 5429,1375 5429,1375 5662,1513 5429,1650 5429,1650 5429,1650 4584,1650 4584,1650 4584,1650 4351,1513 Z"/>
<rect class="BoundingBox" stroke="none" fill="none" x="4350" y="2686" width="1314" height="276"/>
<path fill="rgb(215,113,113)" stroke="none" d="M 4351,2824 L 4584,2686 4584,2686 5429,2686 5429,2686 5662,2824 5429,2961 5429,2961 5429,2961 4584,2961 4584,2961 4584,2961 4351,2824 Z"/>
<rect class="BoundingBox" stroke="none" fill="none" x="5530" y="1507" width="277" height="1313"/>
<path fill="rgb(215,113,113)" stroke="none" d="M 5668,1507 L 5805,1741 5805,1741 5805,2585 5805,2585 5668,2819 5531,2585 5531,2585 5531,2585 5531,1741 5531,1741 5531,1741 5668,1507 Z"/>
<rect class="BoundingBox" stroke="none" fill="none" x="6140" y="195" width="276" height="1314"/>
<path fill="rgb(215,113,113)" stroke="none" d="M 6277,196 L 6415,429 6415,429 6415,1274 6415,1274 6277,1507 6140,1274 6140,1274 6140,1274 6140,429 6140,429 6140,429 6277,196 Z"/>
<rect class="BoundingBox" stroke="none" fill="none" x="6294" y="40" width="1314" height="276"/>
<path fill="rgb(215,113,113)" stroke="none" d="M 6295,178 L 6528,40 6528,40 7373,40 7373,40 7606,178 7373,315 7373,315 7373,315 6528,315 6528,315 6528,315 6295,178 Z"/>
<rect class="BoundingBox" stroke="none" fill="none" x="6294" y="1375" width="1314" height="276"/>
<path fill="rgb(215,113,113)" stroke="none" d="M 6295,1513 L 6528,1375 6528,1375 7373,1375 7373,1375 7606,1513 7373,1650 7373,1650 7373,1650 6528,1650 6528,1650 6528,1650 6295,1513 Z"/>
<rect class="BoundingBox" stroke="none" fill="none" x="6294" y="2686" width="1314" height="276"/>
<path fill="rgb(215,113,113)" stroke="none" d="M 6295,2824 L 6528,2686 6528,2686 7373,2686 7373,2686 7606,2824 7373,2961 7373,2961 7373,2961 6528,2961 6528,2961 6528,2961 6295,2824 Z"/>
<rect class="BoundingBox" stroke="none" fill="none" x="7474" y="1507" width="276" height="1313"/>
<path fill="rgb(215,113,113)" stroke="none" d="M 7611,1507 L 7749,1741 7749,1741 7749,2585 7749,2585 7611,2819 7475,2585 7475,2585 7475,2585 7475,1741 7475,1741 7475,1741 7611,1507 Z"/>
</svg>