<?xml version="1.0" encoding="UTF-8"?><!DOCTYPE svg PUBLIC "-//W3C//DTD SVG 1.1//EN" "http://www.w3.org/Graphics/SVG/1.1/DTD/svg11.dtd"><svg version="1.2" viewBox="0 2500 10000 5000" xmlns="http://www.w3.org/2000/svg"><rect fill="none" x="1131" y="2821" width="1958" height="411"/><path fill="rgb(102,102,102)" d="M 1131,3027 L 1479,2822 1479,2822 2739,2822 2739,2822 3087,3027 2739,3231 2739,3231 2739,3231 1479,3231 1479,3231 1479,3231 1131,3027 Z"/><rect fill="none" x="2891" y="3053" width="410" height="1958"/><path fill="rgb(102,102,102)" d="M 3095,3053 L 3300,3401 3300,3401 3300,4661 3300,4661 3095,5009 2891,4661 2891,4661 2891,4661 2891,3401 2891,3401 2891,3401 3095,3053 Z"/><rect fill="none" x="5791" y="3053" width="410" height="1958"/><path fill="rgb(102,102,102)" d="M 5995,3053 L 6200,3401 6200,3401 6200,4661 6200,4661 5995,5009 5791,4661 5791,4661 5791,4661 5791,3401 5791,3401 5791,3401 5995,3053 Z"/><rect fill="none" x="6700" y="5009" width="410" height="1957"/><path fill="rgb(102,102,102)" d="M 6904,5009 L 7109,5357 7109,5357 7109,6617 7109,6617 6904,6965 6700,6617 6700,6617 6700,6617 6700,5357 6700,5357 6700,5357 6904,5009 Z"/><rect fill="none" x="8691" y="3053" width="410" height="1958"/><path fill="rgb(102,102,102)" d="M 8895,3053 L 9100,3401 9100,3401 9100,4661 9100,4661 8895,5009 8691,4661 8691,4661 8691,4661 8691,3401 8691,3401 8691,3401 8895,3053 Z"/><rect fill="none" x="900" y="3053" width="410" height="1958"/><path fill="rgb(215,113,113)" d="M 1104,3053 L 1309,3401 1309,3401 1309,4661 1309,4661 1104,5009 900,4661 900,4661 900,4661 900,3401 900,3401 900,3401 1104,3053 Z"/><rect fill="none" x="900" y="5009" width="410" height="1957"/><path fill="rgb(215,113,113)" d="M 1104,5009 L 1309,5357 1309,5357 1309,6617 1309,6617 1104,6965 900,6617 900,6617 900,6617 900,5357 900,5357 900,5357 1104,5009 Z"/><rect fill="none" x="1131" y="4813" width="1958" height="410"/><path fill="rgb(215,113,113)" d="M 1131,5018 L 1479,4813 1479,4813 2739,4813 2739,4813 3087,5018 2739,5222 2739,5222 2739,5222 1479,5222 1479,5222 1479,5222 1131,5018 Z"/><rect fill="none" x="1131" y="6768" width="1958" height="411"/><path fill="rgb(215,113,113)" d="M 1131,6974 L 1479,6769 1479,6769 2739,6769 2739,6769 3087,6974 2739,7178 2739,7178 2739,7178 1479,7178 1479,7178 1479,7178 1131,6974 Z"/><rect fill="none" x="2891" y="5009" width="410" height="1957"/><path fill="rgb(215,113,113)" d="M 3095,5009 L 3300,5357 3300,5357 3300,6617 3300,6617 3095,6965 2891,6617 2891,6617 2891,6617 2891,5357 2891,5357 2891,5357 3095,5009 Z"/><rect fill="none" x="3800" y="3053" width="410" height="1958"/><path fill="rgb(215,113,113)" d="M 4004,3053 L 4209,3401 4209,3401 4209,4661 4209,4661 4004,5009 3800,4661 3800,4661 3800,4661 3800,3401 3800,3401 3800,3401 4004,3053 Z"/><rect fill="none" x="3800" y="5009" width="410" height="1957"/><path fill="rgb(215,113,113)" d="M 4004,5009 L 4209,5357 4209,5357 4209,6617 4209,6617 4004,6965 3800,6617 3800,6617 3800,6617 3800,5357 3800,5357 3800,5357 4004,5009 Z"/><rect fill="none" x="4031" y="2821" width="1958" height="411"/><path fill="rgb(215,113,113)" d="M 4031,3027 L 4379,2822 4379,2822 5639,2822 5639,2822 5987,3027 5639,3231 5639,3231 5639,3231 4379,3231 4379,3231 4379,3231 4031,3027 Z"/><rect fill="none" x="4031" y="4813" width="1958" height="410"/><path fill="rgb(215,113,113)" d="M 4031,5018 L 4379,4813 4379,4813 5639,4813 5639,4813 5987,5018 5639,5222 5639,5222 5639,5222 4379,5222 4379,5222 4379,5222 4031,5018 Z"/><rect fill="none" x="4031" y="6768" width="1958" height="411"/><path fill="rgb(215,113,113)" d="M 4031,6974 L 4379,6769 4379,6769 5639,6769 5639,6769 5987,6974 5639,7178 5639,7178 5639,7178 4379,7178 4379,7178 4379,7178 4031,6974 Z"/><rect fill="none" x="5791" y="5009" width="410" height="1957"/><path fill="rgb(215,113,113)" d="M 5995,5009 L 6200,5357 6200,5357 6200,6617 6200,6617 5995,6965 5791,6617 5791,6617 5791,6617 5791,5357 5791,5357 5791,5357 5995,5009 Z"/><rect fill="none" x="6700" y="3053" width="410" height="1958"/><path fill="rgb(215,113,113)" d="M 6904,3053 L 7109,3401 7109,3401 7109,4661 7109,4661 6904,5009 6700,4661 6700,4661 6700,4661 6700,3401 6700,3401 6700,3401 6904,3053 Z"/><rect fill="none" x="6931" y="2821" width="1958" height="411"/><path fill="rgb(215,113,113)" d="M 6931,3027 L 7279,2822 7279,2822 8539,2822 8539,2822 8887,3027 8539,3231 8539,3231 8539,3231 7279,3231 7279,3231 7279,3231 6931,3027 Z"/><rect fill="none" x="6931" y="4813" width="1958" height="410"/><path fill="rgb(215,113,113)" d="M 6931,5018 L 7279,4813 7279,4813 8539,4813 8539,4813 8887,5018 8539,5222 8539,5222 8539,5222 7279,5222 7279,5222 7279,5222 6931,5018 Z"/><rect fill="none" x="6931" y="6768" width="1958" height="411"/><path fill="rgb(215,113,113)" d="M 6931,6974 L 7279,6769 7279,6769 8539,6769 8539,6769 8887,6974 8539,7178 8539,7178 8539,7178 7279,7178 7279,7178 7279,7178 6931,6974 Z"/><rect fill="none" x="8691" y="5009" width="410" height="1957"/><path fill="rgb(215,113,113)" d="M 8895,5009 L 9100,5357 9100,5357 9100,6617 9100,6617 8895,6965 8691,6617 8691,6617 8691,6617 8691,5357 8691,5357 8691,5357 8895,5009 Z"/></svg>