<?xml version="1.0" encoding="UTF-8"?><!DOCTYPE svg PUBLIC "-//W3C//DTD SVG 1.1//EN" "http://www.w3.org/Graphics/SVG/1.1/DTD/svg11.dtd">
<svg version="1.2" viewBox="0 100 5000 1900" xmlns="http://www.w3.org/2000/svg">
<rect class="BoundingBox" stroke="none" fill="none" x="981" y="195" width="770" height="163"/>
<path fill="rgb(128,128,128)" fill-opacity="0.400" stroke="none" d="M 982,276 L 1118,196 1118,196 1613,196 1613,196 1749,276 1613,356 1613,356 1613,356 1118,356 1118,356 1118,356 982,276 Z"/>
<rect class="BoundingBox" stroke="none" fill="none" x="1672" y="286" width="162" height="770"/>
<path fill="rgb(128,128,128)" fill-opacity="0.400" stroke="none" d="M 1753,287 L 1833,423 1833,423 1833,918 1833,918 1753,1054 1672,918 1672,918 1672,918 1672,423 1672,423 1672,423 1753,287 Z"/>
<rect class="BoundingBox" stroke="none" fill="none" x="2810" y="286" width="163" height="770"/>
<path fill="rgb(128,128,128)" fill-opacity="0.400" stroke="none" d="M 2891,287 L 2971,423 2971,423 2971,918 2971,918 2891,1054 2811,918 2811,918 2811,918 2811,423 2811,423 2811,423 2891,287 Z"/>
<rect class="BoundingBox" stroke="none" fill="none" x="3167" y="1054" width="162" height="769"/>
<path fill="rgb(128,128,128)" fill-opacity="0.400" stroke="none" d="M 3247,1054 L 3327,1190 3327,1190 3327,1685 3327,1685 3247,1821 3167,1685 3167,1685 3167,1685 3167,1190 3167,1190 3167,1190 3247,1054 Z"/>
<rect class="BoundingBox" stroke="none" fill="none" x="3948" y="286" width="162" height="770"/>
<path fill="rgb(128,128,128)" fill-opacity="0.400" stroke="none" d="M 4029,287 L 4109,423 4109,423 4109,918 4109,918 4029,1054 3948,918 3948,918 3948,918 3948,423 3948,423 3948,423 4029,287 Z"/>
<rect class="BoundingBox" stroke="none" fill="none" x="891" y="286" width="162" height="770"/>
<path fill="rgb(215,113,113)" stroke="none" d="M 971,287 L 1051,423 1051,423 1051,918 1051,918 971,1054 891,918 891,918 891,918 891,423 891,423 891,423 971,287 Z"/>
<rect class="BoundingBox" stroke="none" fill="none" x="891" y="1054" width="162" height="769"/>
<path fill="rgb(215,113,113)" stroke="none" d="M 971,1054 L 1051,1190 1051,1190 1051,1685 1051,1685 971,1821 891,1685 891,1685 891,1685 891,1190 891,1190 891,1190 971,1054 Z"/>
<rect class="BoundingBox" stroke="none" fill="none" x="981" y="977" width="770" height="162"/>
<path fill="rgb(215,113,113)" stroke="none" d="M 982,1057 L 1118,977 1118,977 1613,977 1613,977 1749,1057 1613,1137 1613,1137 1613,1137 1118,1137 1118,1137 1118,1137 982,1057 Z"/>
<rect class="BoundingBox" stroke="none" fill="none" x="981" y="1744" width="770" height="162"/>
<path fill="rgb(215,113,113)" stroke="none" d="M 982,1825 L 1118,1744 1118,1744 1613,1744 1613,1744 1749,1825 1613,1905 1613,1905 1613,1905 1118,1905 1118,1905 1118,1905 982,1825 Z"/>
<rect class="BoundingBox" stroke="none" fill="none" x="1672" y="1054" width="162" height="769"/>
<path fill="rgb(215,113,113)" stroke="none" d="M 1753,1054 L 1833,1190 1833,1190 1833,1685 1833,1685 1753,1821 1672,1685 1672,1685 1672,1685 1672,1190 1672,1190 1672,1190 1753,1054 Z"/>
<rect class="BoundingBox" stroke="none" fill="none" x="2029" y="286" width="162" height="770"/>
<path fill="rgb(215,113,113)" stroke="none" d="M 2110,287 L 2190,423 2190,423 2190,918 2190,918 2110,1054 2029,918 2029,918 2029,918 2029,423 2029,423 2029,423 2110,287 Z"/>
<rect class="BoundingBox" stroke="none" fill="none" x="2029" y="1054" width="162" height="769"/>
<path fill="rgb(215,113,113)" stroke="none" d="M 2110,1054 L 2190,1190 2190,1190 2190,1685 2190,1685 2110,1821 2029,1685 2029,1685 2029,1685 2029,1190 2029,1190 2029,1190 2110,1054 Z"/>
<rect class="BoundingBox" stroke="none" fill="none" x="2119" y="195" width="770" height="163"/>
<path fill="rgb(215,113,113)" stroke="none" d="M 2120,276 L 2256,196 2256,196 2751,196 2751,196 2887,276 2751,356 2751,356 2751,356 2256,356 2256,356 2256,356 2120,276 Z"/>
<rect class="BoundingBox" stroke="none" fill="none" x="2119" y="977" width="770" height="162"/>
<path fill="rgb(215,113,113)" stroke="none" d="M 2120,1057 L 2256,977 2256,977 2751,977 2751,977 2887,1057 2751,1137 2751,1137 2751,1137 2256,1137 2256,1137 2256,1137 2120,1057 Z"/>
<rect class="BoundingBox" stroke="none" fill="none" x="2119" y="1744" width="770" height="162"/>
<path fill="rgb(215,113,113)" stroke="none" d="M 2120,1825 L 2256,1744 2256,1744 2751,1744 2751,1744 2887,1825 2751,1905 2751,1905 2751,1905 2256,1905 2256,1905 2256,1905 2120,1825 Z"/>
<rect class="BoundingBox" stroke="none" fill="none" x="2810" y="1054" width="163" height="769"/>
<path fill="rgb(215,113,113)" stroke="none" d="M 2891,1054 L 2971,1190 2971,1190 2971,1685 2971,1685 2891,1821 2811,1685 2811,1685 2811,1685 2811,1190 2811,1190 2811,1190 2891,1054 Z"/>
<rect class="BoundingBox" stroke="none" fill="none" x="3167" y="286" width="162" height="770"/>
<path fill="rgb(215,113,113)" stroke="none" d="M 3247,287 L 3327,423 3327,423 3327,918 3327,918 3247,1054 3167,918 3167,918 3167,918 3167,423 3167,423 3167,423 3247,287 Z"/>
<rect class="BoundingBox" stroke="none" fill="none" x="3257" y="195" width="770" height="163"/>
<path fill="rgb(215,113,113)" stroke="none" d="M 3258,276 L 3394,196 3394,196 3889,196 3889,196 4025,276 3889,356 3889,356 3889,356 3394,356 3394,356 3394,356 3258,276 Z"/>
<rect class="BoundingBox" stroke="none" fill="none" x="3257" y="977" width="770" height="162"/>
<path fill="rgb(215,113,113)" stroke="none" d="M 3258,1057 L 3394,977 3394,977 3889,977 3889,977 4025,1057 3889,1137 3889,1137 3889,1137 3394,1137 3394,1137 3394,1137 3258,1057 Z"/>
<rect class="BoundingBox" stroke="none" fill="none" x="3257" y="1744" width="770" height="162"/>
<path fill="rgb(215,113,113)" stroke="none" d="M 3258,1825 L 3394,1744 3394,1744 3889,1744 3889,1744 4025,1825 3889,1905 3889,1905 3889,1905 3394,1905 3394,1905 3394,1905 3258,1825 Z"/>
<rect class="BoundingBox" stroke="none" fill="none" x="3948" y="1054" width="162" height="769"/>
<path fill="rgb(215,113,113)" stroke="none" d="M 4029,1054 L 4109,1190 4109,1190 4109,1685 4109,1685 4029,1821 3948,1685 3948,1685 3948,1685 3948,1190 3948,1190 3948,1190 4029,1054 Z"/>
</svg>